<?xml version="1.0" encoding="utf-8"?>
<!-- Generator: Adobe Illustrator 16.0.0, SVG Export Plug-In . SVG Version: 6.00 Build 0)  -->
<!DOCTYPE svg PUBLIC "-//W3C//DTD SVG 1.1//EN" "http://www.w3.org/Graphics/SVG/1.1/DTD/svg11.dtd">
<svg version="1.1" id="图层_1" xmlns="http://www.w3.org/2000/svg" xmlns:xlink="http://www.w3.org/1999/xlink" x="0px" y="0px"
	 width="100px" height="100px" viewBox="0 0 100 100" enable-background="new 0 0 100 100" xml:space="preserve">
<rect y="0" fill="#3172BA" width="100" height="100"/>
<path fill="none" stroke="#FFFFFF" stroke-width="2.7768" stroke-miterlimit="10" d="M98,50c0,26.509-21.49,48-48,48
	C23.491,98,2,76.509,2,50S23.491,2,50,2"/>
<path fill="none" stroke="#FFFFFF" stroke-width="2.6401" stroke-miterlimit="10" d="M48.333,95.833
	c-59.696-48.452,0-92.666,0-92.666V95.833z"/>
<path fill="none" stroke="#FFFFFF" stroke-width="2.6959" stroke-miterlimit="10" d="M49.333,95.833
	c60.973-47.46-1.395-93.657,0-92.666V95.833z"/>
<line fill="none" stroke="#FFFFFF" stroke-width="2.6959" stroke-miterlimit="10" x1="2" y1="50" x2="76.999" y2="50"/>
<line fill="none" stroke="#FFFFFF" stroke-width="2.6959" stroke-miterlimit="10" x1="8.221" y1="26.364" x2="70.117" y2="26.364"/>
<line fill="none" stroke="#FFFFFF" stroke-width="2.6959" stroke-miterlimit="10" x1="8.218" y1="74.367" x2="70.114" y2="74.367"/>
<circle fill="#FFFFFF" cx="97.4" cy="45.333" r="1.6"/>
<circle fill="#FFFFFF" cx="96.401" cy="41.333" r="1.2"/>
<circle fill="#FFFFFF" cx="95.401" cy="38.333" r="0.7"/>
</svg>
